<?xml version="1.0" encoding="UTF-8" standalone="no"?>
<!-- Created with Inkscape (http://www.inkscape.org/) -->

<svg
   version="1.1"
   id="svg1"
   width="100"
   height="109.33333"
   viewBox="0 0 100 109.33333"
   sodipodi:docname="Wyfs_Logo.eps"
   xmlns:inkscape="http://www.inkscape.org/namespaces/inkscape"
   xmlns:sodipodi="http://sodipodi.sourceforge.net/DTD/sodipodi-0.dtd"
   xmlns="http://www.w3.org/2000/svg"
   xmlns:svg="http://www.w3.org/2000/svg">
  <defs
     id="defs1">
    <clipPath
       clipPathUnits="userSpaceOnUse"
       id="clipPath11">
      <path
         d="m 500.734,395.137 -18.972,10.851 v -0.011 c -4.742,-7.762 -9.91,-15.188 -15.449,-22.258 -0.297,-0.391 -0.602,-0.766 -0.911,-1.153 -16.738,-21.105 -36.879,-39.019 -59.351,-53.152 -0.309,-0.195 -0.633,-0.402 -0.969,-0.594 -12.867,-8 -26.488,-14.777 -40.68,-20.203 -45.23,-17.32 -96.172,-20.929 -146.484,-7.199 -2.777,0.754 -5.516,1.555 -8.242,2.414 -1.352,0.418 -2.688,0.848 -4.02,1.301 -0.738,0.238 -1.488,0.48 -2.218,0.746 -0.68,0.219 -1.344,0.453 -2.008,0.684 -0.496,0.175 -1,0.351 -1.489,0.535 -1.343,0.484 -2.675,0.976 -4.007,1.476 -1.2,0.457 -2.399,0.926 -3.594,1.403 -0.738,0.289 -1.473,0.582 -2.195,0.89 -0.981,0.383 -1.942,0.785 -2.899,1.199 -0.207,0.082 -0.398,0.172 -0.59,0.262 -1.078,0.449 -2.133,0.918 -3.191,1.395 -0.625,0.273 -1.25,0.558 -1.863,0.84 -0.204,0.093 -0.407,0.187 -0.61,0.281 -2.324,1.07 -4.625,2.168 -6.902,3.312 -3.152,1.574 -6.262,3.215 -9.313,4.926 -0.121,0.074 -0.238,0.129 -0.355,0.199 -0.047,0.024 -0.078,0.047 -0.121,0.074 0.148,-0.019 0.297,-0.031 0.449,-0.035 1.496,-0.129 2.984,-0.23 4.48,-0.316 1.493,-0.09 2.989,-0.164 4.477,-0.227 1.852,-0.086 3.699,-0.132 5.547,-0.148 1.129,-0.02 2.246,-0.027 3.383,-0.02 1.484,0 2.965,0.02 4.457,0.059 2.965,0.07 5.922,0.207 8.871,0.41 1.465,0.098 2.937,0.203 4.414,0.34 1.465,0.121 2.93,0.27 4.402,0.43 2.828,0.312 5.657,0.675 8.461,1.097 1.621,0.246 3.25,0.504 4.86,0.789 1.378,0.235 2.746,0.489 4.109,0.766 1.437,0.273 2.871,0.566 4.312,0.891 1.422,0.3 2.848,0.625 4.282,0.976 9.914,2.356 19.64,5.426 29.082,9.188 1.359,0.535 2.707,1.086 4.062,1.66 8.086,3.406 15.957,7.312 23.571,11.699 1.265,0.715 2.531,1.465 3.781,2.219 0.015,0.012 0.019,0.023 0.031,0.023 2.492,1.508 4.969,3.067 7.398,4.688 0.309,0.195 0.618,0.39 0.907,0.605 8.847,5.926 17.277,12.528 25.187,19.766 0.422,0.383 0.836,0.781 1.258,1.164 24.336,22.656 44.27,52.609 55.043,84.141 -9.434,5.437 -18.918,10.789 -28.363,16.203 40.312,11.343 80.633,22.672 120.945,34 l 0.731,0.211 c 8.769,-39.598 17.542,-79.196 26.296,-118.797 z"
         transform="translate(0,-2.5000001e-5)"
         id="path11" />
    </clipPath>
    <clipPath
       clipPathUnits="userSpaceOnUse"
       id="clipPath13">
      <path
         d="m 500.734,395.137 -18.972,10.851 v -0.011 c -4.742,-7.762 -9.91,-15.188 -15.449,-22.258 -0.297,-0.391 -0.602,-0.766 -0.911,-1.153 -16.738,-21.105 -36.879,-39.019 -59.351,-53.152 -0.309,-0.195 -0.633,-0.402 -0.969,-0.594 -12.867,-8 -26.488,-14.777 -40.68,-20.203 -45.23,-17.32 -96.172,-20.929 -146.484,-7.199 -2.777,0.754 -5.516,1.555 -8.242,2.414 -1.352,0.418 -2.688,0.848 -4.02,1.301 -0.738,0.238 -1.488,0.48 -2.218,0.746 -0.68,0.219 -1.344,0.453 -2.008,0.684 -0.496,0.175 -1,0.351 -1.489,0.535 -1.343,0.484 -2.675,0.976 -4.007,1.476 -1.2,0.457 -2.399,0.926 -3.594,1.403 -0.738,0.289 -1.473,0.582 -2.195,0.89 -0.981,0.383 -1.942,0.785 -2.899,1.199 -0.207,0.082 -0.398,0.172 -0.59,0.262 -1.078,0.449 -2.133,0.918 -3.191,1.395 -0.625,0.273 -1.25,0.558 -1.863,0.84 -0.204,0.093 -0.407,0.187 -0.61,0.281 -2.324,1.07 -4.625,2.168 -6.902,3.312 -3.152,1.574 -6.262,3.215 -9.313,4.926 -0.121,0.074 -0.238,0.129 -0.355,0.199 -0.047,0.024 -0.078,0.047 -0.121,0.074 0.148,-0.019 0.297,-0.031 0.449,-0.035 1.496,-0.129 2.984,-0.23 4.48,-0.316 1.493,-0.09 2.989,-0.164 4.477,-0.227 1.852,-0.086 3.699,-0.132 5.547,-0.148 1.129,-0.02 2.246,-0.027 3.383,-0.02 1.484,0 2.965,0.02 4.457,0.059 2.965,0.07 5.922,0.207 8.871,0.41 1.465,0.098 2.937,0.203 4.414,0.34 1.465,0.121 2.93,0.27 4.402,0.43 2.828,0.312 5.657,0.675 8.461,1.097 1.621,0.246 3.25,0.504 4.86,0.789 1.378,0.235 2.746,0.489 4.109,0.766 1.437,0.273 2.871,0.566 4.312,0.891 1.422,0.3 2.848,0.625 4.282,0.976 9.914,2.356 19.64,5.426 29.082,9.188 1.359,0.535 2.707,1.086 4.062,1.66 8.086,3.406 15.957,7.312 23.571,11.699 1.265,0.715 2.531,1.465 3.781,2.219 0.015,0.012 0.019,0.023 0.031,0.023 2.492,1.508 4.969,3.067 7.398,4.688 0.309,0.195 0.618,0.39 0.907,0.605 8.847,5.926 17.277,12.528 25.187,19.766 0.422,0.383 0.836,0.781 1.258,1.164 24.336,22.656 44.27,52.609 55.043,84.141 -9.434,5.437 -18.918,10.789 -28.363,16.203 40.312,11.343 80.633,22.672 120.945,34 l 0.731,0.211 c 8.769,-39.598 17.542,-79.196 26.296,-118.797 z"
         transform="translate(0,-2.5000001e-5)"
         id="path13" />
    </clipPath>
    <clipPath
       clipPathUnits="userSpaceOnUse"
       id="clipPath15">
      <path
         d="m 500.734,395.137 -18.972,10.851 v -0.011 c -4.742,-7.762 -9.91,-15.188 -15.449,-22.258 -0.297,-0.391 -0.602,-0.766 -0.911,-1.153 -16.738,-21.105 -36.879,-39.019 -59.351,-53.152 -0.309,-0.195 -0.633,-0.402 -0.969,-0.594 -12.867,-8 -26.488,-14.777 -40.68,-20.203 -45.23,-17.32 -96.172,-20.929 -146.484,-7.199 -2.777,0.754 -5.516,1.555 -8.242,2.414 -1.352,0.418 -2.688,0.848 -4.02,1.301 -0.738,0.238 -1.488,0.48 -2.218,0.746 -0.68,0.219 -1.344,0.453 -2.008,0.684 -0.496,0.175 -1,0.351 -1.489,0.535 -1.343,0.484 -2.675,0.976 -4.007,1.476 -1.2,0.457 -2.399,0.926 -3.594,1.403 -0.738,0.289 -1.473,0.582 -2.195,0.89 -0.981,0.383 -1.942,0.785 -2.899,1.199 -0.207,0.082 -0.398,0.172 -0.59,0.262 -1.078,0.449 -2.133,0.918 -3.191,1.395 -0.625,0.273 -1.25,0.558 -1.863,0.84 -0.204,0.093 -0.407,0.187 -0.61,0.281 -2.324,1.07 -4.625,2.168 -6.902,3.312 -3.152,1.574 -6.262,3.215 -9.313,4.926 -0.121,0.074 -0.238,0.129 -0.355,0.199 -0.047,0.024 -0.078,0.047 -0.121,0.074 0.148,-0.019 0.297,-0.031 0.449,-0.035 1.496,-0.129 2.984,-0.23 4.48,-0.316 1.493,-0.09 2.989,-0.164 4.477,-0.227 1.852,-0.086 3.699,-0.132 5.547,-0.148 1.129,-0.02 2.246,-0.027 3.383,-0.02 1.484,0 2.965,0.02 4.457,0.059 2.965,0.07 5.922,0.207 8.871,0.41 1.465,0.098 2.937,0.203 4.414,0.34 1.465,0.121 2.93,0.27 4.402,0.43 2.828,0.312 5.657,0.675 8.461,1.097 1.621,0.246 3.25,0.504 4.86,0.789 1.378,0.235 2.746,0.489 4.109,0.766 1.437,0.273 2.871,0.566 4.312,0.891 1.422,0.3 2.848,0.625 4.282,0.976 9.914,2.356 19.64,5.426 29.082,9.188 1.359,0.535 2.707,1.086 4.062,1.66 8.086,3.406 15.957,7.312 23.571,11.699 1.265,0.715 2.531,1.465 3.781,2.219 0.015,0.012 0.019,0.023 0.031,0.023 2.492,1.508 4.969,3.067 7.398,4.688 0.309,0.195 0.618,0.39 0.907,0.605 8.847,5.926 17.277,12.528 25.187,19.766 0.422,0.383 0.836,0.781 1.258,1.164 24.336,22.656 44.27,52.609 55.043,84.141 -9.434,5.437 -18.918,10.789 -28.363,16.203 40.312,11.343 80.633,22.672 120.945,34 l 0.731,0.211 c 8.769,-39.598 17.542,-79.196 26.296,-118.797 z"
         transform="translate(0,-2.5000001e-5)"
         id="path15" />
    </clipPath>
  </defs>
  <sodipodi:namedview
     id="namedview1"
     pagecolor="#ffffff"
     bordercolor="#000000"
     borderopacity="0.25"
     inkscape:showpageshadow="2"
     inkscape:pageopacity="0.0"
     inkscape:pagecheckerboard="0"
     inkscape:deskcolor="#d1d1d1">
    <inkscape:page
       x="0"
       y="0"
       inkscape:label="1"
       id="page1"
       width="100"
       height="109.33333"
       margin="0"
       bleed="0" />
  </sodipodi:namedview>
  <g
     id="g1"
     inkscape:groupmode="layer"
     inkscape:label="1">
    <path
       id="path1"
       d="m 585.164,477.504 v 179.277 c -14.988,0 -27.137,12.153 -27.137,27.141 0,14.984 12.149,27.137 27.137,27.137 V 817.297 C 504.887,754.188 505.641,658.348 542.117,548.086 556.43,524.504 570.75,500.926 585.07,477.348 Z m -70.957,52.863 -25.543,-13.019 c 0,-15.442 0,-30.887 0,-46.325 l 49.621,14.422 c -1.808,-55.703 3.067,-107.297 21.024,-150.855 l 0.476,5.711 c -9.066,42.836 -12.09,87.644 -11.344,133.687 z m 34.523,-44.117 0.071,2.258 12.558,3.648 c 2.383,-7.664 5.371,-14.879 10.461,-20.547 h 9.004 l -41.269,67.957 -17.719,-9.031 26.894,-44.285"
       style="fill:#253b68;fill-opacity:1;fill-rule:evenodd;stroke:none"
       transform="matrix(0.13333333,0,0,-0.13333333,0,109.33333)" />
    <path
       id="path2"
       d="m 585.164,477.504 v 179.277 c 14.992,0 27.145,12.149 27.145,27.141 0,14.984 -12.153,27.137 -27.145,27.137 v 0 106.238 c 80.246,-63.09 79.52,-158.879 43.086,-269.09 l -0.117,0.059 z m 70.813,52.934 25.679,-13.09 c 0,-15.442 0,-30.887 0,-46.325 l -49.621,14.422 C 633.793,431.402 629.254,381.227 612.582,338.5 l -0.621,8.809 c 7.98,40.793 10.641,83.332 9.914,126.972 l 33.934,55.879 z m -34.391,-43.899 -0.063,1.969 -12.558,3.648 c -2.383,-7.664 -5.371,-14.879 -10.461,-20.547 h -9.188 l 41.27,67.957 17.715,-9.031 -26.715,-43.996"
       style="fill:#1e345c;fill-opacity:1;fill-rule:evenodd;stroke:none"
       transform="matrix(0.13333333,0,0,-0.13333333,0,109.33333)" />
    <path
       id="path3"
       d="M 503.164,378.465 V 259.23 l 0.121,-0.035 v -90.394 c -4.043,0.871 -8.219,1.328 -12.48,1.328 -4.465,0 -8.879,-0.512 -13.176,-1.484 -1.508,-0.34 -3,-0.739 -4.469,-1.2 -2.824,11.77 -9.14,22.176 -17.777,30.055 -10.293,9.391 -23.887,15.219 -38.824,15.539 v 9.856 97.527 c 10.605,6.914 20.738,14.68 30.281,23.226 10.523,9.426 20.219,19.676 28.937,30.668 l -0.007,0.008 0.179,0.223 c 0.324,0.402 0.649,0.805 0.895,1.133 l -0.012,0.011 c 2.945,3.766 5.758,7.575 8.426,11.418 l 0.793,1.145 8.097,-4.633 z M 253.652,281.219 V 205.09 c -2.367,3.473 -5.093,6.68 -8.136,9.558 l 0.011,0.012 c -10.472,9.918 -24.597,15.996 -40.121,15.996 -7.336,0 -14.371,-1.359 -20.851,-3.843 -4.762,-1.821 -9.219,-4.25 -13.289,-7.192 v 85.184 l 0.55,-0.266 c 1.414,-0.676 2.614,-1.242 3.637,-1.711 l -0.012,-0.019 0.61,-0.282 h 0.051 l 0.929,-0.422 0.051,-0.05 0.941,-0.407 -0.003,-0.015 1.742,-0.758 1.703,-0.723 c 0.414,-0.191 0.781,-0.363 0.957,-0.429 l 0.012,0.019 c 1.336,-0.586 0.402,-0.211 1.171,-0.531 h 0.051 l 1.262,-0.512 -0.012,-0.019 1.356,-0.543 -0.008,-0.016 1.258,-0.492 0.008,0.008 1.785,-0.715 h 0.05 l 1.911,-0.746 2.101,-0.797 2.113,-0.781 0.012,0.019 3.848,-1.344 0.004,0.02 c 1.461,-0.523 1.777,-0.629 2.121,-0.738 l 4.273,-1.367 -0.008,-0.016 c 0.629,-0.195 2.098,-0.633 4.364,-1.297 1.207,-0.352 2.668,-0.762 4.347,-1.219 13.071,-3.566 26.176,-6.027 39.211,-7.437 z m 124.75,18.769 v -99.695 c -1.851,-1.461 -3.617,-3.023 -5.281,-4.688 -1.137,-1.136 -2.223,-2.32 -3.266,-3.542 -1.269,0.066 -2.542,0.105 -3.824,0.105 -12.152,0 -23.586,-3.133 -33.535,-8.637 -7.734,-4.277 -14.574,-9.992 -20.144,-16.781 -4.348,4.316 -9.364,7.953 -14.883,10.738 -1.84,0.926 -3.735,1.762 -5.676,2.492 v 35.969 64.102 l 0.59,0.027 c 26.625,1.309 52.496,6.856 76.738,16.141 3.102,1.183 6.195,2.441 9.281,3.769"
       style="fill:#253b68;fill-opacity:1;fill-rule:nonzero;stroke:none"
       transform="matrix(0.13333333,0,0,-0.13333333,0,109.33333)" />
    <path
       id="path4"
       d="m 172.715,337.027 -4.289,-10.707 1.148,1.301 15.625,30.348 c 7.985,17.426 12.731,31.043 16.684,49.32 1.293,5.984 2.183,11.82 2.844,17.906 1.652,15.289 0.859,25.555 -3.102,41.028 l 15.883,-2.743 c 0.414,2.067 0.996,10.204 0.422,12.68 -1.95,-0.043 -5.957,0.817 -8.004,1.266 -2.684,0.59 -20.496,4.336 -22.66,3.972 l 5.496,-22.015 c 2.937,-24.352 3.047,-32.863 -0.094,-57.477 -2.047,-16.039 -7.813,-34.89 -13.391,-50.015 -1.054,-2.86 -2.019,-4.934 -3.175,-7.703 -1.02,-2.438 -1.86,-5.27 -3.387,-7.161"
       style="fill:#f07a15;fill-opacity:1;fill-rule:evenodd;stroke:none"
       transform="matrix(0.13333333,0,0,-0.13333333,0,109.33333)" />
    <path
       id="path5"
       d="m 168.426,326.32 -0.02,-0.043 c 6.883,1.758 1.793,-0.347 10.805,2.723 10.652,3.637 16.703,7.68 24.965,14.813 19.117,16.511 31.859,41.55 41.351,64.304 1.118,2.676 2.114,5.207 3.016,7.801 0.996,2.871 5.168,14.16 5.191,16.52 12.922,-3.11 28.2,-5.868 41.879,-8.829 l 25,-4.945 c 0.637,-2.734 -0.863,-10.48 -1.398,-12.926 -0.945,-4.293 -1.727,-7.726 -2.988,-11.988 -4.125,-13.895 -8.204,-18.234 -9.372,-21.551 1.536,0.864 5.559,7.387 6.903,9.254 6.211,8.637 19.281,36.813 19.117,44.539 -1.953,0.469 -3.219,0.934 -5.426,1.403 l -21.769,5.468 c -9.176,2.727 -22.641,5.539 -32.305,8.102 -1.961,0.515 -2.953,0.844 -5.062,1.305 -2.122,0.464 -3.368,0.988 -5.415,1.418 -2.043,0.429 -3.378,0.851 -5.429,1.394 -2.281,0.606 -8.746,2.367 -10.707,2.324 0.133,-6.254 -5.918,-27.547 -8.657,-35.312 -7.613,-21.586 -19.523,-43.321 -35.695,-59.735 -5.93,-6.015 -21.785,-20.671 -29.648,-22.875 -0.574,-0.89 -0.051,-0.754 -0.981,-0.25 -1.699,-0.953 -0.508,-0.66 -2.207,-1.613 l -1.148,-1.301"
       style="fill:#f07a15;fill-opacity:1;fill-rule:evenodd;stroke:none"
       transform="matrix(0.13333333,0,0,-0.13333333,0,109.33333)" />
    <path
       id="path6"
       d="m 172.762,329.484 -0.981,-0.25 11.778,14.704 c 3.929,5.281 7.019,10.355 10.343,15.964 1.75,2.957 3.09,5.039 4.504,8.172 1.242,2.75 3.032,5.555 4.231,8.332 11.761,27.168 16.898,46.559 19.48,76.008 0.321,3.617 0.363,6.848 0.461,10.57 l 0.039,11.231 85.188,-18.188 -4.141,-20.234 c -2.832,0.68 -6.344,1.473 -9,2.414 -0.461,2.738 0.25,4.895 -0.41,7.746 -19.871,4.781 -41.5,8.965 -61.098,13.684 1.871,-8.051 -4.484,-36.981 -7.726,-47.121 l -2.973,-8.661 c -2.832,-6.785 -5.141,-14.218 -8.887,-20.582 l -6.449,-11.605 c -3.074,-5.191 -6.269,-10.277 -9.906,-14.98 -5.645,-7.301 -11.113,-14.204 -17.914,-20.657 l -6.539,-6.547"
       style="fill:#eb9e22;fill-opacity:1;fill-rule:evenodd;stroke:none"
       transform="matrix(0.13333333,0,0,-0.13333333,0,109.33333)" />
    <path
       id="path7"
       d="m 306.855,372.199 0.125,-0.488 -0.675,0.262 z"
       style="fill:#231f20;fill-opacity:1;fill-rule:evenodd;stroke:none"
       transform="matrix(0.13333333,0,0,-0.13333333,0,109.33333)" />
    <path
       id="path8"
       d="m 604.574,452.16 19.235,-273.058 c -6.645,13.386 -20.454,22.593 -36.414,22.593 -22.446,0 -40.641,-18.195 -40.641,-40.64 0,-1.157 0.051,-2.305 0.148,-3.442 -0.242,0.004 -0.48,0.012 -0.718,0.012 -0.575,0 -1.141,-0.012 -1.707,-0.039 l 24.394,289.125 -51.711,85.164 23.621,12.039 44.289,-72.934 44.289,72.934 23.621,-12.039 z m 21.41,-303.875 0.5,-7.121 c -0.953,0.484 -1.925,0.938 -2.921,1.348 0.949,1.847 1.757,3.777 2.421,5.773"
       style="fill:#eb9e22;fill-opacity:1;fill-rule:nonzero;stroke:none"
       transform="matrix(0.13333333,0,0,-0.13333333,0,109.33333)" />
    <path
       id="path9"
       d="m 500.734,395.137 -18.972,10.851 v -0.011 c -4.742,-7.762 -9.91,-15.188 -15.449,-22.258 -0.297,-0.391 -0.602,-0.766 -0.911,-1.153 -16.738,-21.105 -36.879,-39.019 -59.351,-53.152 -0.309,-0.195 -0.633,-0.402 -0.969,-0.594 -12.867,-8 -26.488,-14.777 -40.68,-20.203 -45.23,-17.32 -96.172,-20.929 -146.484,-7.199 -2.777,0.754 -5.516,1.555 -8.242,2.414 -1.352,0.418 -2.688,0.848 -4.02,1.301 -0.738,0.238 -1.488,0.48 -2.218,0.746 -0.68,0.219 -1.344,0.453 -2.008,0.684 -0.496,0.175 -1,0.351 -1.489,0.535 -1.343,0.484 -2.675,0.976 -4.007,1.476 -1.2,0.457 -2.399,0.926 -3.594,1.403 -0.738,0.289 -1.473,0.582 -2.195,0.89 -0.981,0.383 -1.942,0.785 -2.899,1.199 -0.207,0.082 -0.398,0.172 -0.59,0.262 -1.078,0.449 -2.133,0.918 -3.191,1.395 -0.625,0.273 -1.25,0.558 -1.863,0.84 -0.204,0.093 -0.407,0.187 -0.61,0.281 -2.324,1.07 -4.625,2.168 -6.902,3.312 -3.152,1.574 -6.262,3.215 -9.313,4.926 -0.121,0.074 -0.238,0.129 -0.355,0.199 -0.047,0.024 -0.078,0.047 -0.121,0.074 0.148,-0.019 0.297,-0.031 0.449,-0.035 1.496,-0.129 2.984,-0.23 4.48,-0.316 1.493,-0.09 2.989,-0.164 4.477,-0.227 1.852,-0.086 3.699,-0.132 5.547,-0.148 1.129,-0.02 2.246,-0.027 3.383,-0.02 1.484,0 2.965,0.02 4.457,0.059 2.965,0.07 5.922,0.207 8.871,0.41 1.465,0.098 2.937,0.203 4.414,0.34 1.465,0.121 2.93,0.27 4.402,0.43 2.828,0.312 5.657,0.675 8.461,1.097 1.621,0.246 3.25,0.504 4.86,0.789 1.378,0.235 2.746,0.489 4.109,0.766 1.437,0.273 2.871,0.566 4.312,0.891 1.422,0.3 2.848,0.625 4.282,0.976 9.914,2.356 19.64,5.426 29.082,9.188 1.359,0.535 2.707,1.086 4.062,1.66 8.086,3.406 15.957,7.312 23.571,11.699 1.265,0.715 2.531,1.465 3.781,2.219 0.015,0.012 0.019,0.023 0.031,0.023 2.492,1.508 4.969,3.067 7.398,4.688 0.309,0.195 0.618,0.39 0.907,0.605 8.847,5.926 17.277,12.528 25.187,19.766 0.422,0.383 0.836,0.781 1.258,1.164 24.336,22.656 44.27,52.609 55.043,84.141 -9.434,5.437 -18.918,10.789 -28.363,16.203 40.312,11.343 80.633,22.672 120.945,34 l 0.731,0.211 c 8.769,-39.598 17.542,-79.196 26.296,-118.797"
       style="fill:#e3ad1e;fill-opacity:1;fill-rule:nonzero;stroke:none"
       transform="matrix(0.13333333,0,0,-0.13333333,0,109.33333)" />
    <path
       id="path10"
       d="m 500.734,395.137 -15.078,8.629 -3.676,2.086 -0.218,0.136 v -0.011 c -4.742,-7.758 -9.91,-15.188 -15.449,-22.258 -0.297,-0.391 -0.602,-0.766 -0.911,-1.153 -16.738,-21.105 -36.879,-39.019 -59.351,-53.152 -0.309,-0.195 -0.633,-0.402 -0.969,-0.594 -12.867,-8 -26.488,-14.777 -40.68,-20.203 -45.23,-17.32 -96.175,-20.929 -146.484,-7.199 -2.777,0.754 -5.516,1.555 -8.242,2.414 -9.922,3.09 -19.5,6.773 -28.707,11.02 57.824,-8.762 114.828,2.41 163.347,28.816 0.348,0.199 0.715,0.383 1.067,0.59 17.387,9.551 33.652,21.078 48.484,34.347 0.438,0.391 0.867,0.797 1.305,1.2 14.332,12.988 27.273,27.652 38.512,43.742 0.152,0.238 0.32,0.473 0.476,0.711 6.203,8.957 11.871,18.363 16.969,28.168 0.203,0.379 0.398,0.762 0.594,1.152 9.207,17.942 16.465,37.258 21.425,57.723 0.192,0.801 0.399,1.601 0.567,2.41 l -86.52,-26.219 -2.976,-0.894 -28.406,-8.625 -3.051,1.75 30.926,8.703 2.98,0.832 87.039,24.465 0.731,0.211 13.011,-58.743 0.242,-1.113 6.723,-30.371 0.672,-3.016 2.988,-13.527 0.203,-0.898 2.457,-11.129"
       style="fill:#e3ad1e;fill-opacity:1;fill-rule:nonzero;stroke:none"
       transform="matrix(0.13333333,0,0,-0.13333333,0,109.33333)"
       clip-path="url(#clipPath11)" />
    <path
       id="path12"
       d="m 451.145,453.789 c -0.196,-0.383 -0.403,-0.762 -0.606,-1.137 -5.199,-9.754 -10.953,-19.113 -17.242,-28.004 -0.156,-0.238 -0.32,-0.476 -0.488,-0.71 -11.387,-15.985 -24.473,-30.52 -38.93,-43.368 -0.441,-0.394 -0.867,-0.797 -1.32,-1.187 -14.954,-13.121 -31.332,-24.492 -48.813,-33.875 -0.351,-0.211 -0.719,-0.391 -1.062,-0.578 -48.778,-25.942 -105.883,-36.563 -163.618,-27.239 -1.238,0.196 -3.086,0.332 -4.976,0.465 -3.152,1.574 -6.262,3.215 -9.317,4.926 0,0.039 0,0.09 -0.015,0.133 0,0.039 -0.008,0.066 -0.008,0.105 1.496,-0.129 2.984,-0.23 4.48,-0.316 1.489,-0.09 2.989,-0.164 4.477,-0.227 1.852,-0.086 3.699,-0.132 5.543,-0.148 1.133,-0.02 2.25,-0.027 3.387,-0.02 1.484,0 2.965,0.02 4.457,0.059 2.965,0.07 5.922,0.207 8.871,0.41 1.465,0.098 2.937,0.203 4.414,0.34 1.465,0.121 2.93,0.27 4.402,0.43 2.828,0.312 5.657,0.675 8.461,1.097 1.625,0.246 3.25,0.504 4.86,0.789 1.378,0.235 2.746,0.489 4.109,0.766 1.437,0.273 2.871,0.57 4.312,0.891 1.422,0.3 2.848,0.625 4.282,0.976 9.914,2.356 19.64,5.426 29.082,9.188 1.359,0.535 2.707,1.086 4.062,1.66 8.086,3.402 15.957,7.312 23.571,11.699 1.265,0.715 2.531,1.465 3.781,2.223 0.015,0.008 0.019,0.019 0.031,0.019 2.492,1.508 4.969,3.067 7.398,4.688 0.309,0.195 0.618,0.39 0.907,0.605 8.847,5.926 17.281,12.528 25.183,19.766 0.426,0.383 0.84,0.781 1.262,1.164 18.41,17.137 33.969,37.801 45.52,61.449 0.136,0.246 0.25,0.496 0.359,0.746 1.449,2.969 2.82,5.989 4.125,9.051 0.168,0.375 0.32,0.754 0.48,1.145 1.184,2.789 2.309,5.605 3.372,8.476 0.273,0.715 0.531,1.438 0.796,2.168 0.125,0.375 0.262,0.731 0.391,1.106 l -0.672,0.386 c 0.07,0.172 0.129,0.336 0.192,0.508 l -3.954,2.305 -19.82,11.578 -1.398,0.816 28.484,8.348 2.992,0.867 86.754,25.371 0.012,0.012 c -0.18,-0.809 -0.383,-1.606 -0.59,-2.402 -5.148,-20.414 -12.609,-39.664 -21.98,-57.52"
       style="fill:#f07a15;fill-opacity:1;fill-rule:nonzero;stroke:none"
       transform="matrix(0.13333333,0,0,-0.13333333,0,109.33333)"
       clip-path="url(#clipPath13)" />
    <path
       id="path14"
       d="m 473.094,511.328 c -5.379,-20.363 -13.02,-39.523 -22.594,-57.277 -0.195,-0.391 -0.398,-0.77 -0.617,-1.145 -5.289,-9.703 -11.149,-18.98 -17.524,-27.812 -0.164,-0.235 -0.332,-0.473 -0.496,-0.703 -11.562,-15.864 -24.797,-30.254 -39.383,-42.957 -0.449,-0.403 -0.89,-0.789 -1.339,-1.164 -15.09,-12.969 -31.586,-24.168 -49.157,-33.375 -0.359,-0.196 -0.73,-0.375 -1.086,-0.559 -52.519,-27.227 -114.402,-36.793 -176.14,-23.121 -0.11,0.015 -0.231,0.035 -0.336,0.066 -0.047,0.024 -0.078,0.047 -0.121,0.074 0.148,-0.019 0.297,-0.031 0.449,-0.035 1.496,-0.129 2.984,-0.242 4.48,-0.316 1.489,-0.102 2.985,-0.176 4.477,-0.227 1.852,-0.086 3.699,-0.132 5.543,-0.148 1.133,-0.02 2.25,-0.027 3.387,-0.02 1.484,0 2.965,0.02 4.457,0.059 2.965,0.07 5.922,0.207 8.871,0.41 1.465,0.098 2.937,0.203 4.414,0.34 1.465,0.121 2.93,0.27 4.402,0.43 2.828,0.312 5.657,0.675 8.461,1.097 1.625,0.246 3.25,0.504 4.86,0.789 1.378,0.235 2.746,0.489 4.109,0.766 1.437,0.273 2.871,0.57 4.312,0.891 1.422,0.3 2.848,0.625 4.282,0.976 9.914,2.356 19.64,5.426 29.082,9.188 1.359,0.535 2.707,1.086 4.062,1.66 8.086,3.402 15.957,7.312 23.571,11.699 1.265,0.715 2.531,1.465 3.781,2.223 0.015,0.008 0.019,0.019 0.031,0.019 2.492,1.508 4.969,3.067 7.398,4.688 0.309,0.195 0.618,0.39 0.907,0.605 8.847,5.926 17.281,12.528 25.183,19.766 0.426,0.383 0.84,0.781 1.262,1.164 18.41,17.137 33.969,37.801 45.52,61.449 0.136,0.246 0.25,0.496 0.359,0.746 1.449,2.969 2.82,5.989 4.125,9.051 0.168,0.375 0.32,0.754 0.48,1.145 1.184,2.789 2.309,5.605 3.372,8.476 0.273,0.715 0.531,1.438 0.796,2.168 0.125,0.375 0.262,0.731 0.391,1.106 l -0.672,0.386 -3.301,1.871 -21.339,12.196 -3.051,1.75 30.926,8.703 2.98,0.832 87.039,24.465 c -0.004,-0.012 -0.004,-0.012 -0.004,-0.024 -0.191,-0.789 -0.41,-1.582 -0.609,-2.371"
       style="fill:#f07a15;fill-opacity:1;fill-rule:nonzero;stroke:none"
       transform="matrix(0.13333333,0,0,-0.13333333,0,109.33333)"
       clip-path="url(#clipPath15)" />
    <path
       id="path16"
       d="m 415.254,206.418 c 27.605,0 50.269,-21.129 52.719,-48.094 6.914,3.309 14.656,5.164 22.832,5.164 12.812,0 24.554,-4.547 33.715,-12.117 6.269,3.961 13.699,6.254 21.664,6.254 0.238,0 0.476,-0.008 0.718,-0.012 -0.097,1.137 -0.148,2.285 -0.148,3.442 0,22.445 18.195,40.64 40.641,40.64 22.441,0 40.636,-18.195 40.636,-40.64 0,-6.68 -1.613,-12.981 -4.468,-18.543 12.671,-5.258 22.109,-16.742 24.488,-30.641 7.453,8.734 18.539,14.27 30.922,14.27 16.215,0 30.211,-9.496 36.73,-23.235 -1.004,0.067 -2.012,0.098 -3.031,0.098 -21.067,0 -38.848,-14.0821 -44.434,-33.3477 -9.89,6.5078 -21.605,10.4687 -34.218,10.9257 -4.993,31.969 -32.645,56.43 -66.012,56.43 -19.453,0 -36.965,-8.313 -49.176,-21.578 -18.738,13.484 -41.734,21.437 -66.59,21.437 -8.39,0 -16.574,-0.914 -24.453,-2.637 -5.008,27.008 -27.293,47.942 -54.957,50.922 9.656,12.907 25.066,21.262 42.422,21.262"
       style="fill:#f07a15;fill-opacity:1;fill-rule:evenodd;stroke:none"
       transform="matrix(0.13333333,0,0,-0.13333333,0,109.33333)" />
    <path
       id="path17"
       d="m 28.0117,105.316 c -45.5234,75.008 14.6406,131.438 77.3753,131.438 25.34,0 48.367,-9.871 65.468,-25.973 9.157,8.231 21.27,13.239 34.551,13.239 27.621,0 50.184,-21.649 51.653,-48.903 4.504,1.281 9.257,1.969 14.168,1.969 17.05,0 32.175,-8.25 41.597,-20.977 11.117,17.672 30.789,29.414 53.207,29.414 30.754,0 56.344,-22.101 61.758,-51.289 7.879,1.723 16.063,2.637 24.453,2.637 24.856,0 47.852,-7.953 66.59,-21.437 12.211,13.265 29.723,21.578 49.176,21.578 33.367,0 61.019,-24.461 66.012,-56.43 12.613,-0.457 24.328,-4.4179 34.218,-10.9257 5.586,19.2656 23.367,33.3477 44.434,33.3477 12.871,0 24.512,-5.2579 32.898,-13.7384 V 56.4727 H 27.2266 Z m 254.5823,-1.253 h -10.449 v 9.554 h -7.09 v 7.738 h 7.09 v 4.043 h -7.09 v 7.743 h 6.996 l -17.117,29.972 h 11.039 l 11.394,-20.664 11.395,20.664 h 11.043 l -17.117,-29.972 6.996,-0.004 v -7.739 h -7.09 v -4.043 h 7.09 v -7.738 h -7.09 z m -167.649,29.894 c 0,3.922 -1.3,6.379 -3.902,9.027 -1.73,1.758 -3.98,3.336 -7.242,4.719 v -25.625 c 2.609,0.317 4.664,1.051 6.617,2.649 3.02,2.472 4.527,4.996 4.527,9.23 z m -22.0739,17.34 c -5.582,2.039 -10.1172,4.703 -13.5938,7.98 -4.4921,4.231 -7.5703,10.383 -7.5703,16.793 0,6.727 3.25,13.176 8.0938,17.688 3.5742,3.332 7.9336,5.433 13.0703,6.305 v 8.234 h 10.9299 v -8.133 c 6.164,-0.867 11.582,-3.336 15.441,-7.398 4.906,-5.168 6.442,-12 6.266,-18.828 l -0.102,-0.356 h -10.617 c 0,5.051 -1.465,9.137 -4.394,12.254 -1.875,1.992 -3.926,3.004 -6.594,3.48 v -28.851 c 6.89,-2.352 12.219,-6.125 15.988,-10.086 4.16,-4.383 6.242,-9.809 6.242,-16.281 0,-6.946 -2.5,-12.532 -7.492,-16.75 -3.957,-3.348 -8.867,-5.364 -14.738,-6.063 v -8.879 H 92.8711 v 9.145 c -5.1094,0.941 -9.7617,3.097 -13.9609,6.476 -5.8086,4.676 -8.6289,10.922 -8.4532,18.735 l 0.1055,0.355 h 10.6133 c 0,-5.527 0.9531,-8.062 4.5273,-10.941 2.0977,-1.692 4.4883,-2.887 7.168,-3.586 z m 0,37.703 c -2.4063,-0.637 -4.4023,-1.723 -5.9961,-3.258 -2.7266,-2.625 -4.0859,-5.215 -4.0859,-9.437 0,-3.75 1.4765,-6.043 4.4218,-8.547 1.4454,-1.231 3.336,-2.383 5.6602,-3.469 z M 207.863,126.883 h 13.117 l -18.75,31.402 c 2.184,0 5.782,0.211 9.895,2.543 3.102,1.758 4.07,2.82 5.836,5.477 1.414,2.117 2.242,4.312 2.668,6.437 h 6.691 v 9.309 h -7.004 c -0.378,1.504 -0.929,2.883 -1.64,4.137 h 8.644 v 9.308 l -29.101,0.004 h -0.149 -12.16 v 0 h -4.101 v -9.312 h 17.171 c 3.793,-0.106 6.731,-0.903 8.817,-2.387 0.707,-0.504 1.301,-1.09 1.785,-1.75 h -27.773 v -9.309 h 28.636 c -0.523,-1.211 -1.32,-2.242 -2.398,-3.097 -2.082,-1.657 -4.781,-2.485 -8.102,-2.485 H 185.91 Z m 176.719,-2.594 c -3.504,-4.109 -8.309,-6.652 -13.613,-6.652 -7.946,0 -13.742,5.691 -16.219,13.836 h 23.656 v 7.574 h -24.933 c -0.028,0.574 -0.043,1.152 -0.043,1.734 0,0.582 0.015,1.16 0.043,1.735 h 24.933 v 7.574 h -23.652 c 2.473,8.144 8.269,13.836 16.215,13.836 5.304,0 10.109,-2.539 13.613,-6.653 l 5.809,5.813 c -4.95,6.203 -11.934,10.078 -19.684,10.078 -12.285,0 -21.449,-9.726 -24.363,-23.074 h -8.77 v -7.574 h 7.821 c -0.024,-0.575 -0.036,-1.153 -0.036,-1.735 0,-0.582 0.012,-1.156 0.036,-1.734 h -7.821 v -7.574 h 8.77 c 2.914,-13.348 12.078,-23.075 24.363,-23.075 7.75,0 14.734,3.875 19.684,10.079 l -5.809,5.812"
       style="fill:#253b68;fill-opacity:1;fill-rule:evenodd;stroke:none"
       transform="matrix(0.13333333,0,0,-0.13333333,0,109.33333)" />
    <path
       id="path18"
       d="m 384.582,124.289 c -3.504,-4.109 -8.309,-6.652 -13.613,-6.652 -7.946,0 -13.742,5.691 -16.219,13.836 h 23.656 v 7.574 h -24.933 c -0.028,0.574 -0.043,1.152 -0.043,1.734 0,0.582 0.015,1.16 0.043,1.735 h 24.933 v 7.574 h -23.652 c 2.473,8.144 8.269,13.836 16.215,13.836 5.304,0 10.109,-2.539 13.613,-6.653 l 5.809,5.813 c -4.95,6.203 -11.934,10.078 -19.684,10.078 -12.285,0 -21.449,-9.726 -24.363,-23.074 h -8.77 v -7.574 h 7.821 c -0.024,-0.575 -0.036,-1.153 -0.036,-1.735 0,-0.582 0.012,-1.156 0.036,-1.734 h -7.821 v -7.574 h 8.77 c 2.914,-13.348 12.078,-23.075 24.363,-23.075 7.75,0 14.734,3.875 19.684,10.079 l -5.809,5.812"
       style="fill:#f07a15;fill-opacity:1;fill-rule:nonzero;stroke:none"
       transform="matrix(0.13333333,0,0,-0.13333333,0,109.33333)" />
    <path
       id="path19"
       d="m 207.863,126.883 h 13.117 l -18.75,31.402 c 2.184,0 5.782,0.211 9.895,2.543 3.102,1.758 4.07,2.82 5.836,5.477 1.414,2.117 2.242,4.312 2.668,6.437 h 6.691 v 9.309 h -7.004 c -0.378,1.504 -0.929,2.883 -1.64,4.137 h 8.644 v 9.308 l -29.101,0.004 h -0.149 -12.16 v 0 h -4.101 v -9.312 h 17.171 c 3.793,-0.106 6.731,-0.903 8.817,-2.387 0.707,-0.504 1.301,-1.09 1.785,-1.75 h -27.773 v -9.309 h 28.636 c -0.523,-1.211 -1.32,-2.242 -2.398,-3.097 -2.082,-1.657 -4.781,-2.485 -8.102,-2.485 H 185.91 l 21.953,-40.277"
       style="fill:#f07a15;fill-opacity:1;fill-rule:nonzero;stroke:none"
       transform="matrix(0.13333333,0,0,-0.13333333,0,109.33333)" />
    <path
       id="path20"
       d="m 114.945,133.957 c 0,3.922 -1.3,6.379 -3.902,9.027 -1.73,1.758 -3.98,3.336 -7.242,4.719 v -25.625 c 2.609,0.317 4.664,1.051 6.617,2.649 3.02,2.472 4.527,4.996 4.527,9.23 z m -22.0739,17.34 c -5.582,2.039 -10.1172,4.703 -13.5938,7.98 -4.4921,4.231 -7.5703,10.383 -7.5703,16.793 0,6.727 3.25,13.176 8.0938,17.688 3.5742,3.332 7.9336,5.433 13.0703,6.305 v 8.234 h 10.9299 v -8.133 c 6.164,-0.867 11.582,-3.336 15.441,-7.398 4.906,-5.168 6.442,-12 6.266,-18.828 l -0.102,-0.356 h -10.617 c 0,5.051 -1.465,9.137 -4.394,12.254 -1.875,1.992 -3.926,3.004 -6.594,3.48 v -28.851 c 6.89,-2.352 12.219,-6.125 15.988,-10.086 4.16,-4.383 6.242,-9.809 6.242,-16.281 0,-6.946 -2.5,-12.532 -7.492,-16.75 -3.957,-3.348 -8.867,-5.364 -14.738,-6.063 v -8.879 H 92.8711 v 9.145 c -5.1094,0.941 -9.7617,3.097 -13.9609,6.476 -5.8086,4.676 -8.6289,10.922 -8.4532,18.735 l 0.1055,0.355 h 10.6133 c 0,-5.527 0.9531,-8.062 4.5273,-10.941 2.0977,-1.692 4.4883,-2.887 7.168,-3.586 z m 0,37.703 c -2.4063,-0.637 -4.4023,-1.723 -5.9961,-3.258 -2.7266,-2.625 -4.0859,-5.215 -4.0859,-9.437 0,-3.75 1.4765,-6.043 4.4218,-8.547 1.4454,-1.231 3.336,-2.383 5.6602,-3.469 V 189"
       style="fill:#f07a15;fill-opacity:1;fill-rule:nonzero;stroke:none"
       transform="matrix(0.13333333,0,0,-0.13333333,0,109.33333)" />
    <path
       id="path21"
       d="m 282.594,104.063 h -10.449 v 9.554 h -7.09 v 7.738 h 7.09 v 4.043 h -7.09 v 7.743 h 6.996 l -17.117,29.972 h 11.039 l 11.394,-20.664 11.395,20.664 h 11.043 l -17.117,-29.972 6.996,-0.004 v -7.739 h -7.09 v -4.043 h 7.09 v -7.738 h -7.09 v -9.554"
       style="fill:#f07a15;fill-opacity:1;fill-rule:nonzero;stroke:none"
       transform="matrix(0.13333333,0,0,-0.13333333,0,109.33333)" />
    <path
       id="path22"
       d="m 21.3555,2.52734 c 12.0742,0 23.0937,-2.039059 23.0937,12.61716 v 19.0782 l -6.0859,-0.0664 c 0,-5.7344 -0.0078,-11.4493 0.0039,-17.1641 0.0117,-7.19923 -1.418,-8.99611 -8.7031,-8.93751 V 34.2227 L 23.5781,34.168 V 8.04688 c -7.3164,0 -8.6992,1.33203 -8.6914,9.55862 0.0078,5.5351 0,11.0742 0,16.6133 L 8.80078,34.207 c 0,-6.3593 -0.5664,-16.0742 0.11719,-21.9375 C 9.72266,5.36328 14.1445,2.52734 21.3555,2.52734"
       style="fill:#f07a15;fill-opacity:1;fill-rule:evenodd;stroke:none"
       transform="matrix(0.13333333,0,0,-0.13333333,0,109.33333)" />
    <path
       id="path23"
       d="m 399.211,17.9141 c 0,6.1679 0.133,11.1445 7.078,11.0703 6.918,-0.0781 6.746,-4.8086 6.746,-11.0664 z m 0.004,-5.4805 13.82,-0.0352 -0.004,-9.25387 6.09,0.09375 c 0,5.73047 0.602,16.94142 -0.305,21.93752 -1.164,6.418 -5.683,9.4023 -12.836,9.3437 -7.035,-0.0547 -11.449,-3.2617 -12.566,-9.5781 -0.898,-5.1055 -0.289,-15.99609 -0.289,-21.78124 l 6.086,-0.01172 0.004,9.28516"
       style="fill:#f07a15;fill-opacity:1;fill-rule:evenodd;stroke:none"
       transform="matrix(0.13333333,0,0,-0.13333333,0,109.33333)" />
    <path
       id="path24"
       d="m 498.598,17.9141 c 0,6.1679 0.132,11.1445 7.082,11.0703 6.918,-0.0781 6.742,-4.8086 6.742,-11.0664 z m 0.007,-5.4805 13.817,-0.0352 V 3.14453 l 6.086,0.09375 c 0,5.73047 0.605,16.94142 -0.301,21.93752 -1.168,6.418 -5.684,9.4023 -12.84,9.3437 -7.035,-0.0547 -11.453,-3.2617 -12.562,-9.5781 -0.899,-5.1055 -0.293,-15.99609 -0.293,-21.78124 l 6.086,-0.01172 0.007,9.28516"
       style="fill:#f07a15;fill-opacity:1;fill-rule:evenodd;stroke:none"
       transform="matrix(0.13333333,0,0,-0.13333333,0,109.33333)" />
    <path
       id="path25"
       d="m 208.602,16.375 c -0.579,6.0117 0.941,11.3242 6.175,12.4141 6.586,1.3711 9.957,-2.375 10.477,-8.1797 0.535,-6.0039 -1,-11.2969 -6.219,-12.35549 -6.32,-1.27735 -9.898,2.56639 -10.433,8.12109 z m 6.199,18.0313 c -9.27,-1.0157 -13.363,-7.836 -12.574,-18.043 0.718,-9.3008 6.711,-14.79689 16.847,-13.72267 9.18,0.97656 13.281,8.10547 12.528,18.05467 -0.715,9.3789 -6.598,14.836 -16.801,13.711"
       style="fill:#f07a15;fill-opacity:1;fill-rule:evenodd;stroke:none"
       transform="matrix(0.13333333,0,0,-0.13333333,0,109.33333)" />
    <path
       id="path26"
       d="m 709.5,21.7266 c 0.781,9.0429 10.637,6.9726 19.004,6.9726 l 0.004,5.3711 c -1.414,0.6016 -14.078,0.7305 -18.695,-1.8125 -9.188,-5.0625 -8.981,-22.43749 0.218,-27.22655 4.934,-2.56641 12.387,-1.88672 18.469,-1.88672 l 0.125,5.51953 c -8.512,0 -18.82,-2.09765 -19.152,7.66014 l 19.035,0.0039 v 5.3047 L 709.5,21.7266"
       style="fill:#f07a15;fill-opacity:1;fill-rule:evenodd;stroke:none"
       transform="matrix(0.13333333,0,0,-0.13333333,0,109.33333)" />
    <path
       id="path27"
       d="m 85.7891,21.7266 c 0.7773,9.0429 10.6328,6.9726 18.9999,6.9726 l 0.008,5.5235 c -6.1525,0 -13.6837,0.7968 -18.6993,-1.9649 C 76.9102,27.1953 77.1172,9.82031 86.3203,5.03125 91.25,2.46484 98.707,3.14453 104.797,3.14453 l -0.024,5.51953 c -8.48,0 -18.6832,-2.0664 -19.0113,7.66014 l 19.0353,0.0039 v 5.3047 l -19.0079,0.0938"
       style="fill:#f07a15;fill-opacity:1;fill-rule:evenodd;stroke:none"
       transform="matrix(0.13333333,0,0,-0.13333333,0,109.33333)" />
    <path
       id="path28"
       d="m 603.223,3.14453 0.355,5.51953 c -8.5,0 -18.703,-2.0664 -19.031,7.61724 l 19.035,0.0507 v 5.3008 l -19.008,0.0117 c 0.778,9.125 10.633,7.0547 18.992,7.0547 l 0.043,5.5235 c -10.769,0 -25.304,2.082 -25.406,-15.3829 -0.035,-6.5468 2.41,-11.36324 6.703,-13.70308 4.887,-2.66406 12.172,-1.99219 18.317,-1.99219"
       style="fill:#f07a15;fill-opacity:1;fill-rule:evenodd;stroke:none"
       transform="matrix(0.13333333,0,0,-0.13333333,0,109.33333)" />
    <path
       id="path29"
       d="m 272.129,3.14844 c 0,4.82031 0,9.64066 0,14.45706 0,4.8476 -0.774,9.5273 3.461,11.0039 4.543,1.582 8.348,-0.9414 8.504,-5.168 0.207,-5.4531 -3.75,-5.918 -8.594,-5.918 0.555,-1.7109 8.539,-11.84762 9.863,-14.37887 l 7.34,0.05469 c -0.91,1.67187 -8.051,10.37888 -8.512,11.63668 2.856,1.2618 4.387,1.9805 5.508,4.8946 1.035,2.6992 1.055,6.0976 -0.191,8.7812 -3.926,8.4453 -22.992,9.543 -23.449,-5.0586 -0.211,-6.625 -0.016,-13.58201 -0.016,-20.29294 l 6.086,-0.01172"
       style="fill:#f07a15;fill-opacity:1;fill-rule:evenodd;stroke:none"
       transform="matrix(0.13333333,0,0,-0.13333333,0,109.33333)" />
    <path
       id="path30"
       d="m 613.988,3.14844 c 0,4.82031 0,9.64066 0,14.45706 0,4.8476 -0.773,9.5273 3.457,11.0039 4.512,1.5703 8.371,-0.9102 8.512,-5.168 0.18,-5.457 -3.734,-5.918 -8.598,-5.918 0.555,-1.7109 8.536,-11.84762 9.864,-14.37887 l 7.34,0.05469 c -0.477,0.87891 -1.504,2.06641 -2.176,2.95312 -0.848,1.1211 -1.367,1.83204 -2.094,2.83594 l -3.328,4.36722 c -0.457,0.6015 -0.676,0.8281 -0.914,1.4804 2.855,1.2618 4.387,1.9805 5.508,4.8946 1.035,2.6992 1.054,6.0976 -0.196,8.7812 -3.914,8.4141 -22.988,9.5664 -23.445,-5.0586 -0.211,-6.625 -0.02,-13.58201 -0.02,-20.29294 l 6.09,-0.01172"
       style="fill:#f07a15;fill-opacity:1;fill-rule:evenodd;stroke:none"
       transform="matrix(0.13333333,0,0,-0.13333333,0,109.33333)" />
    <path
       id="path31"
       d="m 368.746,3.14844 c 0,5.53515 0.004,11.07426 0,16.61326 -0.004,5.5899 1.109,9.2188 7.082,9.2227 6.039,0.0039 6.93,-3.7969 6.922,-9.5313 -0.008,-5.3867 -0.004,-10.77341 -0.004,-16.27341 l 6.086,-0.03516 c 0,15.84377 3.691,31.57817 -13.312,31.37497 -7.059,-0.0859 -11.481,-3.3828 -12.571,-9.5898 C 362.055,19.8398 362.66,8.93359 362.66,3.16016 l 6.086,-0.01172"
       style="fill:#f07a15;fill-opacity:1;fill-rule:evenodd;stroke:none"
       transform="matrix(0.13333333,0,0,-0.13333333,0,109.33333)" />
    <path
       id="path32"
       d="m 429.676,3.14844 c 0,5.53515 0,11.07426 -0.004,16.61326 -0.008,5.5899 1.109,9.2188 7.082,9.2227 6.043,0.0039 6.93,-3.7969 6.922,-9.5313 -0.012,-5.3867 0,-10.77341 -0.004,-16.27341 l 6.086,-0.03516 c 0,15.84377 3.691,31.57817 -13.317,31.37497 -7.082,-0.0859 -11.445,-3.375 -12.558,-9.582 -0.906,-5.0391 -0.297,-16.03516 -0.297,-21.77734 l 6.09,-0.01172"
       style="fill:#f07a15;fill-opacity:1;fill-rule:evenodd;stroke:none"
       transform="matrix(0.13333333,0,0,-0.13333333,0,109.33333)" />
    <path
       id="path33"
       d="m 261.754,16.375 v 17.8477 c -1.672,0 -4.629,0.2734 -6.086,-0.2266 0,-5.3633 -0.012,-10.7227 0,-16.082 0.008,-5.7071 -0.852,-9.81644 -6.918,-9.84379 -6.18,-0.03125 -7.094,3.80469 -7.086,9.53519 0.008,5.4883 0,10.9726 0,16.4609 -0.703,0.3594 -4.996,0.1406 -6.086,0.1406 0,-5.9765 -0.027,-11.9101 0,-17.8359 0.024,-5.8242 1.574,-10.15626 5.52,-12.25391 4.027,-2.14844 10.691,-2.13672 14.711,-0.03906 4.16,2.17187 5.945,6.10937 5.945,12.29687"
       style="fill:#f07a15;fill-opacity:1;fill-rule:evenodd;stroke:none"
       transform="matrix(0.13333333,0,0,-0.13333333,0,109.33333)" />
    <path
       id="path34"
       d="m 146.328,11.7617 c 2.496,1.1094 3.652,0.6914 5.781,2.4766 5.61,4.6992 4.321,11.7383 4.321,19.9883 l -6.09,-0.0625 c 0,-7.6993 1.863,-17.0586 -7.137,-17.0899 -9.168,-0.0351 -7.211,9.3047 -7.207,17.1133 l -6.09,0.0352 c 0,-10.9258 -1.265,-20.875 10.219,-22.3672 V 3.13672 l 6.078,0.08203 0.125,8.54295"
       style="fill:#f07a15;fill-opacity:1;fill-rule:evenodd;stroke:none"
       transform="matrix(0.13333333,0,0,-0.13333333,0,109.33333)" />
    <path
       id="path35"
       d="m 188.48,11.7617 c 2.411,1.0664 6.993,1.2578 9.168,7.0977 1.411,3.789 0.934,10.7812 0.934,15.3398 l -6.086,-0.0351 c 0,-7.6993 1.859,-17.0586 -7.137,-17.0899 -3.859,-0.0156 -6.355,1.6758 -7,5.2305 -0.375,2.0664 -0.562,10.082 0.012,11.8828 l -6.308,0.0352 c 0,-10.9258 -1.266,-20.875 10.218,-22.3672 V 3.13672 l 6.078,0.08203 0.121,8.54295"
       style="fill:#f07a15;fill-opacity:1;fill-rule:evenodd;stroke:none"
       transform="matrix(0.13333333,0,0,-0.13333333,0,109.33333)" />
    <path
       id="path36"
       d="m 332.441,21.8945 c 0.032,8.4453 4.887,6.8047 15.079,6.8047 l 0.003,5.5235 c -8.648,0 -17.261,1.3398 -20.246,-5.9141 -1.593,-3.875 -0.925,-19.76172 -0.925,-25.14844 l 6.082,-0.01172 0.07,13.17966 h 15.023 l -0.007,5.5664 h -15.079"
       style="fill:#f07a15;fill-opacity:1;fill-rule:evenodd;stroke:none"
       transform="matrix(0.13333333,0,0,-0.13333333,0,109.33333)" />
    <path
       id="path37"
       d="m 476.949,8.56641 c -5.617,0.75 -17.414,-2.67578 -17.332,10.27339 0.086,12.586 11.68,9.1993 17.34,9.9571 v 5.3203 c -5.195,0.7305 -13.398,0.1523 -17.41,-2.0781 -8.344,-4.6368 -8.613,-21.7461 0.23,-26.79301 3.758,-2.14062 12.192,-2.69921 17.18,-1.99609 l -0.008,5.31641"
       style="fill:#f07a15;fill-opacity:1;fill-rule:evenodd;stroke:none"
       transform="matrix(0.13333333,0,0,-0.13333333,0,109.33333)" />
    <path
       id="path38"
       d="m 700.031,8.56641 c -5.617,0.75 -17.414,-2.67578 -17.324,10.27339 0.082,12.586 11.676,9.1993 17.332,9.9571 l 0.004,5.3203 c -5.195,0.7305 -13.398,0.1523 -17.41,-2.0781 -8.344,-4.6368 -8.617,-21.7461 0.23,-26.79301 3.754,-2.14062 12.192,-2.69921 17.184,-1.99609 l -0.016,5.31641"
       style="fill:#f07a15;fill-opacity:1;fill-rule:evenodd;stroke:none"
       transform="matrix(0.13333333,0,0,-0.13333333,0,109.33333)" />
    <path
       id="path39"
       d="m 633.027,34.2188 c 2.774,-5.1563 5.297,-10.7969 7.93,-16.1094 0.629,-1.2656 7.109,-14.99221 8.168,-15.93362 l 15.789,32.04692 -6.891,-0.0313 -9.105,-20.2891 -8.945,20.3204 -6.946,-0.0039"
       style="fill:#f07a15;fill-opacity:1;fill-rule:evenodd;stroke:none"
       transform="matrix(0.13333333,0,0,-0.13333333,0,109.33333)" />
    <path
       id="path40"
       d="m 66.8945,27.5664 c 2.9258,2.1524 5.0391,0.5742 8.4649,1.2734 l 0.0039,5.2344 c -3.6328,0.7696 -11.0899,0.4219 -13.3828,-1.707 -5.25,-4.8711 1.1953,-11.4805 4.1406,-14.918 7.9687,-9.30076 3.5586,-8.78514 -5.707,-8.78514 L 60.4102,3.14453 c 3.0546,0 9.6875,-0.40234 12.0859,0.55078 2.6914,1.07422 4.8711,4.13282 4.0508,8.16799 -0.5469,2.6719 -3.0781,5.3281 -5,7.625 -1.043,1.2461 -1.8438,2.2656 -2.9024,3.5586 -0.9765,1.1875 -1.9687,2.2851 -1.75,4.5195"
       style="fill:#f07a15;fill-opacity:1;fill-rule:evenodd;stroke:none"
       transform="matrix(0.13333333,0,0,-0.13333333,0,109.33333)" />
    <path
       id="path41"
       d="m 565.684,27.5664 c 2.925,2.1524 5.035,0.5742 8.464,1.2734 v 5.2344 c -3.625,0.7696 -11.097,0.4141 -13.378,-1.707 -5.25,-4.8711 1.195,-11.4805 4.136,-14.918 8.004,-9.34373 3.496,-8.78514 -5.703,-8.78514 l -0.004,-5.51953 c 3.055,0 9.688,-0.40234 12.082,0.55078 2.692,1.07422 4.871,4.13282 4.051,8.16799 -0.543,2.6719 -3.074,5.3281 -4.996,7.625 -2.223,2.6523 -4.938,5.1758 -4.652,8.0781"
       style="fill:#f07a15;fill-opacity:1;fill-rule:evenodd;stroke:none"
       transform="matrix(0.13333333,0,0,-0.13333333,0,109.33333)" />
    <path
       id="path42"
       d="m 301.059,27.5664 c 2.925,2.1524 5.039,0.5742 8.464,1.2734 v 5.2344 c -3.593,0.7617 -11.082,0.4336 -13.382,-1.707 -3.473,-3.2266 -1.582,-8.0234 0.64,-10.7344 1.242,-1.5195 2.258,-2.7344 3.5,-4.1836 7.969,-9.30076 3.559,-8.78514 -5.703,-8.78514 L 294.57,3.14453 c 3.059,0 9.692,-0.40234 12.086,0.55078 2.762,1.10157 4.805,4.08594 4.067,8.16799 -0.457,2.5195 -3.153,5.4023 -5.012,7.625 -2.223,2.6523 -4.938,5.1758 -4.652,8.0781"
       style="fill:#f07a15;fill-opacity:1;fill-rule:evenodd;stroke:none"
       transform="matrix(0.13333333,0,0,-0.13333333,0,109.33333)" />
    <path
       id="path43"
       d="m 739.227,27.5664 c 2.925,2.1524 5.039,0.5742 8.464,1.2734 v 5.2344 c -3.625,0.7696 -11.097,0.4141 -13.378,-1.707 -3.477,-3.2266 -1.586,-8.0234 0.636,-10.7344 1.41,-1.7265 6.106,-7.0898 6.887,-8.5156 3.129,-5.69142 -5.039,-4.45314 -9.086,-4.45314 l -0.008,-5.51953 c 3.055,0 9.692,-0.40234 12.082,0.55078 2.696,1.07422 4.875,4.13282 4.055,8.16799 -0.547,2.6719 -3.078,5.3281 -5,7.625 -2.223,2.6523 -4.934,5.1758 -4.652,8.0781"
       style="fill:#f07a15;fill-opacity:1;fill-rule:evenodd;stroke:none"
       transform="matrix(0.13333333,0,0,-0.13333333,0,109.33333)" />
    <path
       id="path44"
       d="m 535.527,3.14453 9.102,0.09766 -0.008,5.29687 c -6.394,1.14063 -14.594,-2.49218 -15.469,5.12504 -0.632,5.4922 -0.089,14.5351 -0.089,20.4023 -0.708,0.3594 -4.997,0.1406 -6.09,0.1406 0,-6.3632 -0.543,-15.7187 0.101,-21.6367 0.758,-6.93358 5.164,-9.42577 12.453,-9.42577"
       style="fill:#f07a15;fill-opacity:1;fill-rule:evenodd;stroke:none"
       transform="matrix(0.13333333,0,0,-0.13333333,0,109.33333)" />
    <path
       id="path45"
       d="m 121.668,3.14453 9.098,0.09766 -0.004,5.29687 c -6.266,1.11719 -14.594,-2.5039 -15.469,5.12504 -0.637,5.5312 -0.094,14.6445 -0.094,20.5547 l -6.086,-0.0118 c 0,-6.3632 -0.547,-15.7187 0.102,-21.6367 0.758,-6.93358 5.16,-9.42577 12.453,-9.42577"
       style="fill:#f07a15;fill-opacity:1;fill-rule:evenodd;stroke:none"
       transform="matrix(0.13333333,0,0,-0.13333333,0,109.33333)" />
    <path
       id="path46"
       d="m 49.4102,3.15625 h 6.0859 V 34.2109 l -1.2188,0.0118 -3.6914,0.0117 -1.1757,-0.0664 V 3.15625"
       style="fill:#f07a15;fill-opacity:1;fill-rule:evenodd;stroke:none"
       transform="matrix(0.13333333,0,0,-0.13333333,0,109.33333)" />
    <path
       id="path47"
       d="m 481.422,3.15625 h 6.09 V 34.2109 l -1.215,0.0118 -3.695,0.0117 -1.18,-0.0664 V 3.15625"
       style="fill:#f07a15;fill-opacity:1;fill-rule:evenodd;stroke:none"
       transform="matrix(0.13333333,0,0,-0.13333333,0,109.33333)" />
    <path
       id="path48"
       d="m 666.355,3.15625 h 6.086 V 34.2109 l -1.214,0.0118 -3.696,0.0117 -1.176,-0.0664 V 3.15625"
       style="fill:#f07a15;fill-opacity:1;fill-rule:evenodd;stroke:none"
       transform="matrix(0.13333333,0,0,-0.13333333,0,109.33333)" />
    <path
       id="path49"
       d="m 351.574,3.15625 h 6.086 V 34.2109 l -1.215,0.0118 -3.695,0.0117 -1.176,-0.0664 V 3.15625"
       style="fill:#f07a15;fill-opacity:1;fill-rule:evenodd;stroke:none"
       transform="matrix(0.13333333,0,0,-0.13333333,0,109.33333)" />
  </g>
</svg>
